<svg xmlns="http://www.w3.org/2000/svg" width="145.782" height="120.75" viewBox="0 0 145.782 120.75">
  <path id="box_gable" data-name="box gable" d="M314.386,158.541l7.541,4.354v31.963a2,2,0,0,0,1,1.732l41.568,24a1.99,1.99,0,0,0,2,0l83.137-48a2,2,0,0,0,1-1.732v-22.1l7.541-4.354a2,2,0,0,0,.62-2.9l-29.325-40.564a2.026,2.026,0,0,0-2.067-.777c-31.315,7.156-29.487,6.692-29.88,6.919l-83.14,48A2.007,2.007,0,0,0,314.386,158.541Zm11.541,6.664L363.5,186.9v28.5L325.927,193.7Zm89.421-58.188-71.375,41.208L327.888,151.9l71.376-41.208Zm-71.481,45.335,23.069,31.91L320.8,157.624ZM367.5,215.394V189.2l5.542,3.2a2.03,2.03,0,0,0,2,0l71.6-41.337V169.7Zm7.105-27.357-26.97-37.305,79.656-45.989,26.97,37.305Z" transform="translate(-313.394 -100.11)"/>
</svg>
