<svg xmlns="http://www.w3.org/2000/svg" width="145.788" height="120.084" viewBox="0 0 145.788 120.084">
  <path id="butterfly" d="M759.578,593.538l8,8.538v34.143a2,2,0,0,0,1,1.733c44.388,25.627,41.778,24.267,42.569,24.267.835,0-4.877,3.125,84.139-48.267a2,2,0,0,0,1-1.733v-28.1l7.541-4.354a2,2,0,0,0-.826-3.725l-28.564-2.5-28.8-30.74a2,2,0,0,0-2.459-.365l-83.138,48A2,2,0,0,0,759.578,593.538ZM843.8,546.7,870.319,575l-79.582,45.947-26.518-28.3ZM813.147,656.755V627.468s6.483.565,6.541.565c.835,0-3.984,2.609,72.6-41.6v24.636Zm-41.569-21.69v-28.72c18.736,20,17.439,18.715,17.982,18.954.42.184-.95.024,19.587,1.82v29.636Zm47.656-11.079-22.376-1.957,77.1-44.513,22.376,1.957Z" transform="translate(-759.037 -542.172)"/>
</svg>
