<svg xmlns="http://www.w3.org/2000/svg" width="159.095" height="119.24" viewBox="0 0 159.095 119.24">
  <path id="clerestory" d="M905.349,820.712c-89.74-51.812-83.84-48.5-84.432-48.583L771.512,765a2,2,0,0,0-1.286,3.712l10.753,6.209v11.9l-33.09,30.893a2,2,0,0,0,.365,3.194l7.4,4.274V848.17a2,2,0,0,0,1,1.733l58.969,34.046a2,2,0,0,0,2,0l75.97-43.862a2,2,0,0,0,1-1.732v-15.3l9.467,1.366A2,2,0,0,0,905.349,820.712Zm-145.692,6.772,54.969,31.737v19.531l-54.969-31.736Zm23.6-37.328,64.427,37.2-30.668,28.63-64.427-37.2Zm65.766,24.05v9.3l-64.048-36.98v-9.3Zm-30.4,64.546c0-19.822-.059-18.74.042-18.834l33.724-31.484a1.99,1.99,0,0,0,.621-1.462h.014V816.515a4.629,4.629,0,0,0,1.632.777L890.6,822.48V837.2Zm36.986-65.364-74.386-42.946,38.737,5.592,74.386,42.947Z" transform="translate(-747.255 -764.976)"/>
</svg>
