<svg xmlns="http://www.w3.org/2000/svg" width="146.856" height="121.779" viewBox="0 0 146.856 121.779">
  <defs>
    <style>
      .cls-1 {
        stroke: rgba(0,0,0,0);
      }
    </style>
  </defs>
  <path id="dormer" class="cls-1" d="M52.11,120.742a1.983,1.983,0,0,1-1-.267c2.654,1.531-38.906-22.463-41.569-24a2,2,0,0,1-1-1.732V57.251L2.446,58.643A2,2,0,0,1,1,54.961l83.138-48c.509-.293,30-6.941,30.136-6.953a2,2,0,0,1,1.349.361c.435.309-1.5-2.26,29.786,41.015a2,2,0,0,1-.619,2.9l-7.541,4.354v22.1a2.005,2.005,0,0,1-1,1.733c-79.392,45.835-83.413,48.3-83.965,48.3C52.218,120.778,52.2,120.742,52.11,120.742Zm2-5.464,79.139-45.69V50.952l-71.6,41.336a2,2,0,0,1-2.621-.561L54.11,84.921ZM12.541,56.336V93.588l37.57,21.69V79.388L30.481,52.237Zm21.7-5.72L61.214,87.921l79.656-45.989L113.9,4.627ZM85.878,10.577,14.5,51.785l16.085-3.677L101.962,6.9Zm-17.7,64.981c-.534-.309-.4-.247-15.17-21.02a2.009,2.009,0,0,1-.112-2.146C61.1,37.894,60.8,38.037,61.79,37.686a1.955,1.955,0,0,1,1.669.143c17.45,10.076,12.5,7.148,22.405,13.209a2.052,2.052,0,0,1,.956,1.706V64.795a2,2,0,0,1-1,1.732c-17.132,9.892-15.556,9-15.912,9.143-.042.017-.076.047-.121.06a1.971,1.971,0,0,1-.6.094A2.025,2.025,0,0,1,68.178,75.558Zm3-13.256v8.06L82.82,63.64V53.9l-5.19-3Zm-4,5.261V62.929L61.588,59.7ZM57.355,52.638l11.075,6.4L74.165,48.9c-6.2-3.577-3.724-2.109-10.986-6.554Zm46.233,3a3.151,3.151,0,0,1-.355-.147c-.018-.01-.3-.219-.358-.275C102.562,54.925,88.063,34.468,88,34.362a1.87,1.87,0,0,1-.3-1.09c.015-.734-.231-.088,8.074-14.762l.013-.018.009-.02a2,2,0,0,1,2.719-.709c17.45,10.075,12.5,7.147,22.406,13.208a2.059,2.059,0,0,1,.956,1.707V44.729a2,2,0,0,1-1,1.733c-17.132,9.891-15.556,9-15.913,9.142-.041.017-.076.047-.12.061a2.468,2.468,0,0,1-.609.095A1.588,1.588,0,0,1,103.588,55.639Zm2.644-13.4V50.3l11.642-6.72V33.833l-5.19-3Zm-4,5.261V42.864l-5.589-3.227ZM92.408,32.573l11.077,6.4,5.734-10.133c-6.151-3.551-3.672-2.077-10.985-6.554Z" transform="translate(0.56 0.501)"/>
</svg>
