<svg xmlns="http://www.w3.org/2000/svg" width="145.779" height="118.7" viewBox="0 0 145.779 118.7">
  <path id="dutch_gable" data-name="dutch gable" d="M206.471,324.5a2.009,2.009,0,0,0-2.313-.766l-13.567,4.527-8.9-.015c-.834,0,4.869-3.121-84.139,48.267a2.009,2.009,0,0,0,0,3.464l7.541,4.354v31.962a2,2,0,0,0,1,1.732c44.388,25.628,41.78,24.268,42.569,24.268.833,0-4.869,3.121,84.139-48.268a2,2,0,0,0,1-1.732v-22.1l7.54-4.353a2,2,0,0,0,.273-3.275l-21.19-17.49Zm-80.985,46.817,8.244-2.766,8.385,12.367Zm63.836-39.058-55.5,32.04-17,5.706,65.4-37.758Zm-68.9,40.756,26.582,15.346,6.585,19.354-50.2-28.984Zm26.233,35.316v28.5L109.09,415.137v-28.5Zm4,2.309c6.089,3.516,5.867,3.467,6.54,3.467.853,0-3.7,2.449,72.6-41.6v18.636l-79.139,45.691Zm7.65-1.482c-8.321-24.457-7.773-22.949-8-23.275l-12.9-19.033L204.2,328.283c13.944,20.563,13.125,19.425,13.451,19.693l19.188,15.838Z" transform="translate(-96.558 -323.628)"/>
</svg>
