<svg xmlns="http://www.w3.org/2000/svg" width="144.705" height="120.618" viewBox="0 0 144.705 120.618">
  <path id="flat" d="M759.476,156.59l7,4.041v34.227a2,2,0,0,0,1,1.732l41.569,24a2,2,0,0,0,2,0l83.138-48a2,2,0,0,0,1-1.732V136.631l7-4.041a2,2,0,0,0,0-3.464l-49.569-28.619a2,2,0,0,0-2,0l-91.138,52.619A2,2,0,0,0,759.476,156.59Zm92.138-52.041,45.569,26.309-87.138,50.309-45.569-26.309Zm-81.138,58.392,37.569,21.69v30.763L770.476,193.7Zm41.569,21.69,79.138-45.69V169.7l-79.138,45.691Z" transform="translate(-758.477 -100.239)"/>
</svg>
