<svg xmlns="http://www.w3.org/2000/svg" width="143.436" height="125.995" viewBox="0 0 143.436 125.995">
  <path id="gambrel" d="M450.635,391.651V375.306L457,371.634a2,2,0,0,0,.936-2.237c-7.674-29.448-7.356-28.369-7.556-28.725-.21-.372-21.123-22.8-21.33-22.955-.646-.484.667-.256-21.821-2.059-.024,0-.048.006-.072.005a2.2,2.2,0,0,0-1.088.257c-88.612,51.161-83.6,47.967-84,49.038l-.014-.005-7.361,19.75a2,2,0,0,0,2.874,2.43l4.361-2.518v31.036a2,2,0,0,0,1,1.732l41.568,24a1.985,1.985,0,0,0,2,0l83.137-48A2,2,0,0,0,450.635,391.651ZM325.927,367.819l17.85,1.431L363.5,390.438v45.749L325.927,414.5Zm119.532-26.643-79.583,45.947-17.989-19.329,79.584-45.947ZM421.286,320.8l-77.035,44.477-13.759-1.1L407.526,319.7Zm-47.155,94.059-6.315-24.235L447.361,344.7l6.315,24.236Zm-6.635,21.33V405.258l3.426,13.148a2,2,0,0,0,1.935,1.495c.834,0-4.082,2.667,73.778-42.285V390.5Zm-47.114-55.3,1.545-4.145V380Z" transform="translate(-314.561 -315.658)"/>
</svg>
