<svg xmlns="http://www.w3.org/2000/svg" width="145.779" height="114.084" viewBox="0 0 145.779 114.084">
  <path id="hip" d="M535.377,157.936c.383.553-.029.227,8.168,4.959v31.963a2,2,0,0,0,1,1.732l41.57,24a2,2,0,0,0,2,0l83.137-48a2,2,0,0,0,1-1.732v-22.1l7.541-4.354a2,2,0,0,0,.274-3.274c-43.72-36.087-41.185-34.222-42.142-34.279-.328-.02-18.427-.041-17.783-.041-.833,0,4.87-3.121-84.138,48.268A1.985,1.985,0,0,0,535.377,157.936Zm12.168,7.269,37.57,21.69v28.5L547.545,193.7Zm30.508-20.059,14,41.134-50.2-28.985Zm11.062,44.059c5.866,3.387,5.848,3.467,6.541,3.467.8,0-3.853,2.534,72.6-41.6V169.7l-79.137,45.691Zm7.65-1.483-15.037-44.2,55.876-32.26L675.3,142.381Zm33.6-76.894-51.886,29.956-23.2,7.785,65.4-37.758Z" transform="translate(-535.014 -106.773)"/>
</svg>
