<svg xmlns="http://www.w3.org/2000/svg" width="145.789" height="118.154" viewBox="0 0 145.789 118.154">
  <path id="jerkinhead" d="M665.753,337.616c.058-.1.525.28-23.022-13.316a2,2,0,0,0-1.445-.217l-17.81,4.069c-.455.1,5.451-3.249-83.693,48.218a2,2,0,0,0,1,3.732c.314,0-.087.071,6.542-1.444V416.15a2,2,0,0,0,1,1.732c44.388,25.627,41.779,24.268,42.569,24.268.833,0-4.869,3.12,84.139-48.268a2,2,0,0,0,1-1.732v-22.1l7.541-4.354a2,2,0,0,0,.621-2.9C664.962,336.192,666.351,337.96,665.753,337.616ZM553.285,373.193l71.376-41.208,15.07-3.444v.354l-58.984,34.054-22.755,9.168Zm26.34-5.48v16.153l-16.478-9.514Zm-28.3,10.031,6.948-1.588,21.982,12.692,8.639,11.949v35.889l-37.569-21.691Zm41.569,28.586,4.92,6.806a2,2,0,0,0,1.622.828c.832,0-4,2.616,72.6-41.6v18.636l-79.139,45.691Zm7.1,3-16.372-22.646V365.906l58.262-33.637,21.594,8.7,16.173,22.37Z" transform="translate(-538.784 -324.032)"/>
</svg>
