<svg xmlns="http://www.w3.org/2000/svg" width="138.084" height="132.756" viewBox="0 0 138.084 132.756">
  <path id="lean_to" data-name="lean to" d="M641.453,819.222l29-16.745-2-3.465-29,16.745-79.138-45.689,27-15.591-2-3.465-30,17.323a1.957,1.957,0,0,0-.9,1.131c-.159.5-.1-2.786-.1,47.915l-21.293,19.525a2,2,0,0,0,.352,3.206l7.4,4.274v17.956a2,2,0,0,0,3.725,1c.393-.68.275.342.275-16.643l29.647,17.117v17.956a2,2,0,0,0,4,0c0-18.024-.072-17.154.028-17.246l18.313-16.792L638.453,871.8a2,2,0,0,0,2,0l30-17.322-2-3.465-27,15.591Zm-64.624,41.36L537.734,838.01l42.921-39.354,39.095,22.571Zm47.633-38.249a2,2,0,0,0-.351-3.207l-42.727-24.668a2,2,0,0,0-2.351.257l-20.719,19V773.532l79.139,45.689V866.6l-37.6-21.707Z" transform="translate(-532.373 -751.012)"/>
</svg>
