<svg xmlns="http://www.w3.org/2000/svg" width="151.904" height="130.122" viewBox="0 0 151.904 130.122">
  <path id="m_Shaped" data-name="m Shaped" d="M251.572,797.851c-.142-.582.951,1.055-21.1-29.447a2.019,2.019,0,0,0-1.988-.789c-.257.047-3.034.686-10.362,2.361-8.393-11.609-10.69-14.795-10.869-15.017a1.99,1.99,0,0,0-1.221-.715c-.6-.1,1.018-.4-21.561,4.765a2.228,2.228,0,0,0-.554.218c-88.236,50.943-83.43,48.005-83.849,48.705-.491.816-.29-1.465-.29,37.026a2,2,0,0,0,1,1.733l64.72,37.366a2,2,0,0,0,2,0l83.138-48a2,2,0,0,0,1-1.732C251.635,795.777,251.668,798.243,251.572,797.851Zm-137.293,6.2,71.376-41.208,7.541-1.723-71.374,41.208Zm-10.5,6.5,17.94-4.1,10.8,14.938a2,2,0,0,0,2.067.778l10.284-2.35,19.63,27.152v31.889L103.777,843.8ZM246.716,797.7,167.06,843.69,148.631,818.2l79.656-45.988Zm-29.84-23.522-71.9,41.512-9.991,2.283-9.5-13.142,79.656-45.989,10.518,14.548A2,2,0,0,0,216.876,774.18ZM168.5,878.861V847.48l79.138-45.69v31.38Z" transform="translate(-99.736 -754.203)"/>
</svg>
