<svg xmlns="http://www.w3.org/2000/svg" width="143.431" height="129.345" viewBox="0 0 143.431 129.345">
  <path id="mansard" d="M673.56,559.226c-.3-.634,1.942,1.261-28.624-22.861-.614-.484-.416-.336-14.483-2.274a2,2,0,0,0-1.274.249c-79.071,45.653-74.3,42.721-74.705,43.481l-11.961,22.405a2,2,0,0,0,.765,2.674l6.361,3.673v30.844a2,2,0,0,0,1,1.733l41.57,24a2,2,0,0,0,2,0l83.138-48a2,2,0,0,0,1-1.733V591.073l6.362-3.673a2,2,0,0,0,.811-2.579ZM561.624,579.562l21.507-5.005,10.364,23.406Zm37.112,20.356-11.89-26.851,56.677-32.722,24.671,19.47Zm38.907-60.8-54.1,31.233L568.9,573.762l61.684-35.614Zm-80.614,42.409,38.879,22.447,2.327,26.034L546.954,600.4Zm34.18,49.044v27.38l-37.57-21.691v-27.38Zm4,27.381V632.882l4.361,2.518a2.009,2.009,0,0,0,1.535.191c.388-.108-4.1,2.443,73.242-42.209v18.881Zm7.074-27.586-2.369-26.511L670.86,562.9l10.26,21.956Z" transform="translate(-542.277 -534.072)"/>
</svg>
