<svg xmlns="http://www.w3.org/2000/svg" width="145.79" height="120.749" viewBox="0 0 145.79 120.749">
  <path id="open_Gable" data-name="open Gable" d="M93.332,158.759l6.1-1.393v37.492a2,2,0,0,0,1,1.732l41.568,24a1.99,1.99,0,0,0,2,0l83.137-48a2,2,0,0,0,1-1.732v-22.1l7.541-4.354a2,2,0,0,0,.62-2.9l-29.325-40.564a2.035,2.035,0,0,0-2.067-.777c-31.315,7.156-29.487,6.692-29.88,6.919l-83.138,48a2,2,0,0,0,1.446,3.681Zm12.056-6.858,71.376-41.208,16.084-3.676-71.375,41.208Zm-1.961,4.551,17.94-4.1L141,179.5v35.89L103.427,193.7ZM145,215.394V185.037l4.921,6.807a2,2,0,0,0,2.621.56l71.6-41.337V169.7Zm7.1-27.357-26.97-37.305,79.656-45.989,26.97,37.305Z" transform="translate(-90.886 -100.111)"/>
</svg>
