<svg xmlns="http://www.w3.org/2000/svg" width="145.788" height="114.085" viewBox="0 0 145.788 114.085">
  <path id="pyramid_hip" data-name="pyramid hip" d="M458.174,804.1l-58.65-33.864a2,2,0,0,0-2,0c-89.073,51.427-83.356,48.013-83.752,48.56a2.135,2.135,0,0,0-.382,1.057,2,2,0,0,0,.226,1.037c.36.693.2.48,8.311,5.164v31.963a2,2,0,0,0,1,1.732l41.569,24a1.98,1.98,0,0,0,1,.268c.854,0-4.837,3.1,84.139-48.268a2,2,0,0,0,1-1.732v-22.1l7.541-4.354A2,2,0,0,0,458.174,804.1ZM325.927,828.364l37.569,21.69v28.5l-37.569-21.69Zm118.554-27.553L389.63,788l9.473-13.384Zm-59.509-13.157-38.477,16.663,45.122-26.051Zm-1.359,4.948L372.6,850.69l-52.769-30.466ZM367.5,878.553v-26.19c5.637,3.255,5.641,3.282,5.981,3.381a1.858,1.858,0,0,0,1.033.025c.453-.111-3.354,2.035,72.125-41.543v18.637Zm9.319-28.636,11.042-58.228L451.8,806.627Z" transform="translate(-313.387 -769.968)"/>
</svg>
