<svg xmlns="http://www.w3.org/2000/svg" width="155.252" height="122.743" viewBox="0 0 155.252 122.743">
  <path id="saltbox" d="M878.91,319.555a2.016,2.016,0,0,0-1.813-.812c-.1.01-49.465,11.188-49.988,11.49l-72.746,42a2,2,0,0,0,1.445,3.682l5.165-1.18v28.741a2,2,0,0,0,1,1.732l62.354,36a2,2,0,0,0,2,0l72.746-42a2,2,0,0,0,1-1.732v-30.1l7.541-4.354a2,2,0,0,0,.621-2.9ZM827.327,436.013V397.657l4.92,6.8a2,2,0,0,0,2.621.56l61.205-35.336v26.636Zm-62.354-33.691v-28.5l38.724-8.85,19.63,27.153v43.889Zm99.814-76.687L803.8,360.844l-35.938,8.213,60.983-35.209Zm-30.356,75.021-26.97-37.3,69.264-39.989,26.97,37.3Z" transform="translate(-753.362 -318.734)"/>
</svg>
