<svg xmlns="http://www.w3.org/2000/svg" width="144.145" height="126.216" viewBox="0 0 144.145 126.216">
  <path id="shed" d="M406.163,536.528a2,2,0,0,0-2.376-.282l-83.138,48a2,2,0,0,0-.376,3.183l6.272,5.945V636.2a2,2,0,0,0,1,1.732l41.569,24a2,2,0,0,0,2,0l83.139-48a2,2,0,0,0,1-1.732v-14.1l7.541-4.353a2,2,0,0,0,.376-3.184Zm-75.618,60.637,37.569,35.609v23.957L330.545,635.04Zm41.569,59.566V636.565l5.165,4.9a2,2,0,0,0,2.376.282l71.6-41.337V611.04Zm6.834-19.2L324.97,586.37l79.525-45.912,53.978,51.16Z" transform="translate(-319.649 -535.979)"/>
</svg>
