<svg xmlns="http://www.w3.org/2000/svg" width="47.635" height="72.141" viewBox="0 0 47.635 72.141"><defs><style>.a,.b{fill:#c2c6c6;}.a{stroke:#c2c6c6;stroke-linecap:round;stroke-width:0.2px;}</style></defs><g transform="translate(-77.9 -452.896)"><g transform="translate(78 453)"><path class="a" d="M13801.692,5431.663c-.026.1-.062.215-.144.5-1.009,3.51-1.7,5.924-4.031,6.7a34.376,34.376,0,0,1-6.263,1.244,63.976,63.976,0,0,1-16.228,0,34.376,34.376,0,0,1-6.263-1.244c-2.327-.777-3.022-3.192-4.031-6.7l-.026-.092q-.873-.355-1.739-.755a5.925,5.925,0,0,1-3.4-3.075,12.038,12.038,0,0,1-.5-4.493v-34.966c0-.695-.015-1.3-.03-1.922-.016-.747-.036-1.514-.036-2.144,0-3.633.453-7.075,3.544-7.453a15.291,15.291,0,0,1-.284-2.321,14.787,14.787,0,0,1,.245-3.344c.56-3.051,17.86-2.924,20.605-2.9h.141c2.745-.021,20.047-.148,20.6,2.9a14.8,14.8,0,0,1,.247,3.344,15.575,15.575,0,0,1-.329,2.534c2.3.882,2.662,3.983,2.662,7.24,0,.631-.02,1.4-.037,2.144-.015.621-.029,1.227-.029,1.922v34.966a12.06,12.06,0,0,1-.5,4.493,5.927,5.927,0,0,1-3.4,3.075C13802.211,5431.434,13801.954,5431.551,13801.692,5431.663Zm-18.976,4.807a52.288,52.288,0,0,0,9.131-.733,41.5,41.5,0,0,0,8.1-2.251c.12-.4.242-.812.369-1.25a42.174,42.174,0,0,1-7.413,2.148,48.21,48.21,0,0,1-5.184.712.581.581,0,0,1-.262.059c-.083,0-.166-.007-.249-.018q-2.213.164-4.49.156-2.229.006-4.392-.149c-.062.006-.124.01-.187.01a.568.568,0,0,1-.225-.042,48.849,48.849,0,0,1-5.383-.729,42.249,42.249,0,0,1-6.457-1.786c.129.441.253.859.378,1.253a41.83,41.83,0,0,0,7.612,1.967A52.718,52.718,0,0,0,13782.717,5436.47Zm16.939-2.092a42.346,42.346,0,0,1-7.687,2.078,53.127,53.127,0,0,1-9.253.742,53.717,53.717,0,0,1-8.77-.661,42.825,42.825,0,0,1-7.2-1.807c.576,1.582,1.239,2.648,2.384,3.03a33.441,33.441,0,0,0,6.036,1.19,62.282,62.282,0,0,0,15.942,0,33.423,33.423,0,0,0,6.036-1.19C13798.375,5437.351,13799.05,5436.152,13799.656,5434.378Zm3.279-60.589c-.986-.848-4.876-1.321-8.959-1.585-4.766-.308-9.761-.289-10.972-.281h-.075c-2.513-.019-17.71-.129-19.506,1.821q-.026.587,0,1.149a14.231,14.231,0,0,0,.3,2.336h38.579c.111,0,.222,0,.326.01a14.547,14.547,0,0,0,.306-2.347c.017-.362.017-.729,0-1.1Zm-39.453-.823C13767.187,5371.079,13763.518,5372.587,13763.482,5372.965Zm16.756,61.119q1.229.048,2.479.045,1.33,0,2.638-.051C13784.814,5433.528,13780.818,5433.493,13780.238,5434.084Zm-1.943-.111c.315-.061,8.674-.079,8.966-.01a47.6,47.6,0,0,0,5.424-.728,40.321,40.321,0,0,0,9.294-2.982,4.881,4.881,0,0,0,2.809-2.454,11.428,11.428,0,0,0,.413-4.056v-34.965c0-.535.017-1.234.035-1.95.016-.656.032-1.326.032-2.117,0-3.25-.365-6.32-2.96-6.32h-39.178c-2.6,0-2.959,3.07-2.959,6.32,0,.791.016,1.461.031,2.117.018.716.035,1.414.035,1.95v34.965a11.4,11.4,0,0,0,.413,4.056,4.882,4.882,0,0,0,2.809,2.454,40.37,40.37,0,0,0,9.295,2.982,47.57,47.57,0,0,0,5.542.736Z" transform="translate(-13759 -5368.689)"/><path class="b" d="M-1.109-15.122A1.109,1.109,0,0,0,0-14.018a1.107,1.107,0,0,0,1.1-1.1A1.1,1.1,0,0,0,0-16.235,1.1,1.1,0,0,0-1.109-15.122ZM5.6-12.339a1.111,1.111,0,0,0,1.113,1.113,1.109,1.109,0,0,0,1.1-1.113,1.1,1.1,0,0,0-1.1-1.1A1.1,1.1,0,0,0,5.6-12.339Zm-13.424.019a1.109,1.109,0,0,0,1.113,1.1,1.1,1.1,0,0,0,1.1-1.1,1.1,1.1,0,0,0-1.1-1.113A1.111,1.111,0,0,0-7.825-12.32Zm1.438,6.67A6.3,6.3,0,0,0-5.005-1.688L-.45-6.271a.683.683,0,0,1,.956,0,.68.68,0,0,1,0,.974L-4.077-.742A6.323,6.323,0,0,0,0,.733,6.384,6.384,0,0,0,6.4-5.65,6.39,6.39,0,0,0,0-12.033,6.384,6.384,0,0,0-6.387-5.65Zm-4.2-.009A1.126,1.126,0,0,0-9.468-4.537a1.117,1.117,0,0,0,1.1-1.123,1.1,1.1,0,0,0-1.1-1.1A1.117,1.117,0,0,0-10.59-5.659Zm18.954,0A1.125,1.125,0,0,0,9.477-4.537,1.113,1.113,0,0,0,10.59-5.659a1.115,1.115,0,0,0-1.113-1.1A1.115,1.115,0,0,0,8.364-5.659ZM-7.825,1.03a1.1,1.1,0,0,0,1.113,1.1,1.1,1.1,0,0,0,1.1-1.1,1.1,1.1,0,0,0-1.1-1.113A1.111,1.111,0,0,0-7.825,1.03ZM5.59,1.039A1.109,1.109,0,0,0,6.7,2.143a1.1,1.1,0,0,0,1.1-1.1,1.109,1.109,0,1,0-2.217,0Z" transform="translate(24 59)"/></g><path class="b" d="M-3.257-22.2a.56.56,0,0,0-.559.559v3.4a.554.554,0,0,0,.559.559.548.548,0,0,0,.559-.559v-3.4A.554.554,0,0,0-3.257-22.2Zm-2.691.251a.521.521,0,0,0-.386.695l.3,1.138a.539.539,0,0,0,.714.357.5.5,0,0,0,.367-.666l-.318-1.1A.553.553,0,0,0-5.948-21.953Zm5.392.029a.517.517,0,0,0-.685.4L-1.55-20.42a.537.537,0,0,0,.376.685.549.549,0,0,0,.685-.386l.3-1.129A.533.533,0,0,0-.556-21.924ZM-8.4-20.834a.548.548,0,0,0-.2.762l1.7,2.952a.529.529,0,0,0,.752.2.541.541,0,0,0,.2-.762l-1.7-2.942A.554.554,0,0,0-8.4-20.834Zm10.292.01a.554.554,0,0,0-.762.2l-1.7,2.942a.554.554,0,0,0,.2.772.538.538,0,0,0,.752-.212L2.1-20.072A.545.545,0,0,0,1.894-20.825Zm-12.5,1.572a.55.55,0,0,0,.01.781l.81.82a.537.537,0,0,0,.791.01.553.553,0,0,0-.01-.791l-.81-.81A.537.537,0,0,0-10.607-19.252Zm14.7.01a.559.559,0,0,0-.781,0l-.83.83a.542.542,0,0,0,0,.781.542.542,0,0,0,.781,0l.81-.82A.546.546,0,0,0,4.093-19.243Zm-16.263,2.18a.551.551,0,0,0,.193.762l2.952,1.707a.551.551,0,0,0,.762-.2.538.538,0,0,0-.2-.762l-2.952-1.7A.548.548,0,0,0-12.17-17.063Zm17.835.01a.554.554,0,0,0-.762-.2l-2.942,1.7a.538.538,0,0,0-.2.762.54.54,0,0,0,.752.2L5.463-16.3A.542.542,0,0,0,5.666-17.053Zm1.119,2.46a.544.544,0,0,0-.675-.386l-1.138.3a.545.545,0,0,0-.376.714.538.538,0,0,0,.666.357l1.109-.309A.558.558,0,0,0,6.784-14.594Zm-20.083,0a.571.571,0,0,0,.405.675l1.119.318A.534.534,0,0,0-11.1-14a.549.549,0,0,0-.386-.685L-12.6-14.97A.549.549,0,0,0-13.3-14.594ZM7.045-11.912a.552.552,0,0,0-.559-.55H3.08a.546.546,0,0,0-.559.55.548.548,0,0,0,.559.559h3.4A.554.554,0,0,0,7.045-11.912Zm-20.6,0a.554.554,0,0,0,.559.559h3.4a.548.548,0,0,0,.559-.559.546.546,0,0,0-.559-.55H-13A.552.552,0,0,0-13.559-11.912ZM6.775-9.2a.53.53,0,0,0-.386-.685L5.26-10.2a.539.539,0,0,0-.675.386.559.559,0,0,0,.386.694l1.119.289A.535.535,0,0,0,6.775-9.2ZM-13.3-9.221a.558.558,0,0,0,.685.386l1.129-.28a.529.529,0,0,0,.4-.675.556.556,0,0,0-.685-.4l-1.1.3A.545.545,0,0,0-13.3-9.221ZM5.666-6.761a.545.545,0,0,0-.2-.752L2.511-9.221a.551.551,0,0,0-.762.193.557.557,0,0,0,.212.772L4.9-6.559A.556.556,0,0,0,5.666-6.761Zm-17.835,0a.54.54,0,0,0,.752.2l2.952-1.7a.54.54,0,0,0,.2-.762.543.543,0,0,0-.762-.2l-2.952,1.707A.54.54,0,0,0-12.17-6.761ZM-8.4-2.99a.545.545,0,0,0,.752-.2l1.7-2.942a.56.56,0,0,0-.193-.772.549.549,0,0,0-.762.212L-8.6-3.752A.546.546,0,0,0-8.4-2.99Zm10.292,0a.551.551,0,0,0,.2-.762L.389-6.694a.538.538,0,0,0-.752-.212.546.546,0,0,0-.2.762l1.7,2.952A.554.554,0,0,0,1.894-2.99Zm2.19-1.563A.562.562,0,0,0,4.1-5.343l-.839-.82a.556.556,0,0,0-.8,0,.557.557,0,0,0,.019.772l.82.82A.534.534,0,0,0,4.084-4.552ZM-10.6-4.562a.548.548,0,0,0,.772.019l.83-.83a.542.542,0,0,0,.01-.781.545.545,0,0,0-.791,0l-.81.82A.516.516,0,0,0-10.6-4.562Zm7.34,2.952A.554.554,0,0,0-2.7-2.17v-3.4a.548.548,0,0,0-.559-.559.554.554,0,0,0-.559.559v3.4A.56.56,0,0,0-3.257-1.61Zm2.691-.251A.52.52,0,0,0-.18-2.546L-.469-3.684a.553.553,0,0,0-.695-.386.534.534,0,0,0-.386.675l.318,1.109A.546.546,0,0,0-.566-1.861ZM-6-1.871a.559.559,0,0,0,.723-.386l.309-1.119a.531.531,0,0,0-.376-.675.542.542,0,0,0-.685.386l-.3,1.119A.506.506,0,0,0-6-1.871Z" transform="translate(104.815 488.255)"/></g></svg>