<svg xmlns="http://www.w3.org/2000/svg" width="54.999" height="67.075" viewBox="0 0 54.999 67.075"><defs><style>.a{fill:#c2c6c6;stroke:#fff;}</style></defs><g transform="translate(-23.501 -22.496)"><g transform="translate(10.001 -935.358)"><path class="a" d="M36.359,6A1.5,1.5,0,0,0,35,7.358c-.975,10.013-2.529,19.372-8.367,25.8l-2.2-6.633a1.5,1.5,0,0,0-2.766-.187s-1.919,3.874-3.82,8.859S14,46.229,14,51c0,5.6,3.868,10.66,7.547,14.437a55.088,55.088,0,0,0,7.359,6.3,1.5,1.5,0,0,0,2.2-1.9,12.944,12.944,0,0,1-1.359-6.094c0-3.732,2.238-6.181,4.992-9.961a30.369,30.369,0,0,0,5.93-14.695c3.293,1.988,10.078,7.186,10.078,16.406a38.871,38.871,0,0,1-1.8,8.906c-.922,3.084-1.852,5.578-1.852,5.578a1.5,1.5,0,0,0,1.8,1.969,32.592,32.592,0,0,0,8.7-4.289,1.5,1.5,0,0,0-1.687-2.484,30.2,30.2,0,0,1-4.992,2.789c.349-1.02.443-1.2.891-2.7.953-3.187,1.945-6.933,1.945-9.773,0-14.095-13.64-20.132-13.64-20.132A1.5,1.5,0,0,0,38,36.654,26.258,26.258,0,0,1,32.328,52c-2.644,3.628-5.578,6.815-5.578,11.742a19.906,19.906,0,0,0,.234,2.578A43.687,43.687,0,0,1,23.7,63.348C20.256,59.809,17,55.132,17,51c0-3.9,1.807-9.871,3.656-14.718,1.085-2.845,1.445-3.5,2.156-5.062l1.758,5.25a1.5,1.5,0,0,0,2.414.656c7.6-6.713,9.576-16.726,10.687-26.882C44.313,15.043,50.23,20.4,51.5,30.935a1.5,1.5,0,0,0,2.976.117l1.57-7.359C59.151,27.906,65,37.306,65,48.747a18.4,18.4,0,0,1-3.984,11.718,1.5,1.5,0,0,0,2.367,1.852A21.6,21.6,0,0,0,68,48.747C68,31.814,56.35,19.24,56.35,19.24a1.5,1.5,0,0,0-2.578.7l-.867,4.078C49.86,15.542,43.471,10.553,37.367,6.279A1.5,1.5,0,0,0,36.359,6Z" transform="translate(0 952.362)"/></g></g></svg>