<svg xmlns="http://www.w3.org/2000/svg" width="62.6" height="64" viewBox="0 0 62.6 64"><defs><style>.a{fill:#c2c6c6;}</style></defs><g transform="translate(-1.7 -1)"><path class="a" d="M64.3,45.4a14.745,14.745,0,0,0-9.2-13.6V4.5A3.543,3.543,0,0,0,51.6,1H38.7a3.543,3.543,0,0,0-3.5,3.5V14.6a.945.945,0,0,0,1,1h5a.945.945,0,0,0,1-1V8h5.9V30.7h-8v-4a.945.945,0,0,0-1-1H27a.945.945,0,0,0-1,1v4H17.8V8h5.9v6.6a.945.945,0,0,0,1,1h5a.945.945,0,0,0,1-1V4.5A3.543,3.543,0,0,0,27.2,1H14.3a3.543,3.543,0,0,0-3.5,3.5V31.9A14.684,14.684,0,0,0,1.7,45.4,14.854,14.854,0,0,0,13.8,59.8V64a.945.945,0,0,0,1,1h7.1a.945.945,0,0,0,1-1V60H43v4a.945.945,0,0,0,1,1h7.1a.945.945,0,0,0,1-1V59.7A14.516,14.516,0,0,0,64.3,45.4ZM41.2,6a.945.945,0,0,0-1,1v6.6h-3V4.5A1.538,1.538,0,0,1,38.7,3H51.6a1.538,1.538,0,0,1,1.5,1.5V31.2a15.438,15.438,0,0,0-3-.4V7a.945.945,0,0,0-1-1ZM28,27.7H38.1v3H28ZM12.8,4.5A1.538,1.538,0,0,1,14.3,3H27.2a1.538,1.538,0,0,1,1.5,1.5v9.1h-3V7a.945.945,0,0,0-1-1H16.8a.945.945,0,0,0-1,1V30.7a14.474,14.474,0,0,0-3,.4V4.5ZM20.9,63H15.8V59.9c1.5.1,1.2,0,5.1,0Zm29.2,0H45V60h5.1Zm-.4-5H16.4a12.406,12.406,0,0,1-9.6-4.5h3.9a1,1,0,0,0,0-2H5.4a12.6,12.6,0,0,1-1.5-5.1H6.8a1,1,0,0,0,0-2H3.9a11.728,11.728,0,0,1,1.6-5.2h5.3a1,1,0,1,0,0-2h-4a12.646,12.646,0,0,1,9.6-4.4H49.7a12.646,12.646,0,0,1,9.6,4.4H55.2a1,1,0,0,0,0,2h5.5a11.621,11.621,0,0,1,1.5,5.2h-3a1,1,0,0,0,0,2h3a13.548,13.548,0,0,1-1.5,5.2H55.2a1,1,0,0,0,0,2h4.2A13.386,13.386,0,0,1,49.7,58Z"/><path class="a" d="M32.1,36.2c-.6.9-5.8,8.8-5.8,12.1a6.6,6.6,0,0,0,13.2,0c0-3.3-5.2-11.2-5.8-12.1A1.04,1.04,0,0,0,32.1,36.2Zm.8,16.7a4.653,4.653,0,0,1-4.6-4.6c0-1.8,2.6-6.4,4.6-9.7,2.1,3.2,4.6,7.9,4.6,9.7A4.525,4.525,0,0,1,32.9,52.9Z"/><path class="a" d="M38.7,20.6v-1a1,1,0,1,0-2,0v1a.945.945,0,0,0,1,1A1,1,0,0,0,38.7,20.6Z"/><path class="a" d="M43.7,22.6v-1a1,1,0,1,0-2,0v1a.945.945,0,0,0,1,1A1,1,0,0,0,43.7,22.6Z"/><path class="a" d="M27.1,19.6v1a1,1,0,0,0,2,0v-1a.945.945,0,0,0-1-1A1,1,0,0,0,27.1,19.6Z"/><path class="a" d="M23.1,20.6a.945.945,0,0,0-1,1v1a1,1,0,0,0,2,0v-1A.945.945,0,0,0,23.1,20.6Z"/></g></svg>