<svg height="512pt" viewBox="0 0 512.00013 512" width="512pt" xmlns="http://www.w3.org/2000/svg"><path d="m506.140625 477.855469-471.996094-471.996094c-7.8125-7.8125-20.476562-7.8125-28.285156 0-7.8125 7.808594-7.8125 20.472656 0 28.28125l81.136719 81.136719-81.285156 170.457031-.066407.148437c-10.535156 22.5625-5.910156 49.667969 11.503907 67.453126l137.699218 140.640624c11.5 11.746094 27.117188 17.988282 42.949219 17.988282 8.296875 0 16.65625-1.714844 24.503906-5.25l177.710938-78.417969 77.84375 77.84375c3.90625 3.90625 9.027343 5.859375 14.144531 5.859375s10.234375-1.953125 14.140625-5.859375c7.8125-7.808594 7.8125-20.472656 0-28.285156zm-314.011719-257.441407-141.523437 64.109376 66.394531-139.238282zm13.953125 249.738282-.164062.074218c-7.605469 3.441407-16.644531 1.738282-22.488281-4.230468l-134.113282-136.976563 173.035156-78.382812 147.324219 147.324219zm-44.210937-384.710938c-4.664063-10.011718-.324219-21.910156 9.6875-26.570312l114.34375-53.238282c22.539062-10.523437 49.644531-5.898437 67.433594 11.511719l140.644531 137.703125c17.910156 17.539063 23.019531 44.660156 12.714843 67.503906l-52.421874 117.78125c-3.316407 7.449219-10.625 11.871094-18.285157 11.871094-2.714843 0-5.476562-.554687-8.121093-1.730468-10.089844-4.492188-14.628907-16.316407-10.136719-26.40625l52.496093-117.949219c3.4375-7.605469 1.738282-16.644531-4.230468-22.488281l-136.980469-134.113282-49.796875 109.9375c-3.34375 7.382813-10.617188 11.75-18.230469 11.75-2.757812 0-5.5625-.574218-8.238281-1.785156-10.0625-4.558594-14.523438-16.410156-9.964844-26.472656l41.855469-92.402344-96.199219 44.789062c-10.011718 4.660157-21.910156.324219-26.570312-9.691406zm0 0"/></svg>